solid OpenSCAD_Model
  facet normal 1 -0 0
    outer loop
      vertex 75.74 0 29
      vertex 75.74 122.4 0
      vertex 75.74 122.4 29
    endloop
  endfacet
  facet normal 1 0 0
    outer loop
      vertex 75.74 122.4 0
      vertex 75.74 0 29
      vertex 75.74 0 0
    endloop
  endfacet
  facet normal 0 0 1
    outer loop
      vertex 75.74 122.4 29
      vertex 73.74 120.4 29
      vertex 75.74 0 29
    endloop
  endfacet
  facet normal 0 0 1
    outer loop
      vertex 75.74 122.4 29
      vertex 2 120.4 29
      vertex 73.74 120.4 29
    endloop
  endfacet
  facet normal 0 0 1
    outer loop
      vertex 2 120.4 29
      vertex 0 122.4 29
      vertex 2 2 29
    endloop
  endfacet
  facet normal -0 0 1
    outer loop
      vertex 0 122.4 29
      vertex 2 120.4 29
      vertex 75.74 122.4 29
    endloop
  endfacet
  facet normal -0 0 1
    outer loop
      vertex 73.74 2 29
      vertex 75.74 0 29
      vertex 73.74 120.4 29
    endloop
  endfacet
  facet normal -0 0 1
    outer loop
      vertex 2 2 29
      vertex 75.74 0 29
      vertex 73.74 2 29
    endloop
  endfacet
  facet normal 0 0 1
    outer loop
      vertex 2 2 29
      vertex 0 0 29
      vertex 75.74 0 29
    endloop
  endfacet
  facet normal 0 0 1
    outer loop
      vertex 0 0 29
      vertex 2 2 29
      vertex 0 122.4 29
    endloop
  endfacet
  facet normal 0 0 -1
    outer loop
      vertex 23.429 108.56 0
      vertex 9.174 108.56 0
      vertex 23.429 114.48 0
    endloop
  endfacet
  facet normal 0 0 -1
    outer loop
      vertex 47.3423 108.56 0
      vertex 28.3977 108.56 0
      vertex 47.3423 114.48 0
    endloop
  endfacet
  facet normal 0 0 -1
    outer loop
      vertex 75.74 0 0
      vertex 66.566 13.84 0
      vertex 75.74 122.4 0
    endloop
  endfacet
  facet normal 0 0 -1
    outer loop
      vertex 75.74 0 0
      vertex 9.174 13.84 0
      vertex 66.566 13.84 0
    endloop
  endfacet
  facet normal -0 0 -1
    outer loop
      vertex 9.174 13.84 0
      vertex 0 0 0
      vertex 9.174 108.56 0
    endloop
  endfacet
  facet normal 0 0 -1
    outer loop
      vertex 0 0 0
      vertex 9.174 13.84 0
      vertex 75.74 0 0
    endloop
  endfacet
  facet normal 0 0 -1
    outer loop
      vertex 66.566 108.56 0
      vertex 75.74 122.4 0
      vertex 66.566 13.84 0
    endloop
  endfacet
  facet normal 0 0 -1
    outer loop
      vertex 52.311 114.48 0
      vertex 66.566 108.56 0
      vertex 52.311 108.56 0
    endloop
  endfacet
  facet normal 0 0 -1
    outer loop
      vertex 52.2974 114.74 0
      vertex 66.566 108.56 0
      vertex 52.311 114.48 0
    endloop
  endfacet
  facet normal 0 0 -1
    outer loop
      vertex 52.2568 114.997 0
      vertex 66.566 108.56 0
      vertex 52.2974 114.74 0
    endloop
  endfacet
  facet normal 0 0 -1
    outer loop
      vertex 52.1894 115.248 0
      vertex 66.566 108.56 0
      vertex 52.2568 114.997 0
    endloop
  endfacet
  facet normal 0 0 -1
    outer loop
      vertex 52.0963 115.49 0
      vertex 66.566 108.56 0
      vertex 52.1894 115.248 0
    endloop
  endfacet
  facet normal 0 0 -1
    outer loop
      vertex 66.566 108.56 0
      vertex 52.0963 115.49 0
      vertex 75.74 122.4 0
    endloop
  endfacet
  facet normal 0 0 -1
    outer loop
      vertex 51.9782 115.722 0
      vertex 75.74 122.4 0
      vertex 52.0963 115.49 0
    endloop
  endfacet
  facet normal 0 0 -1
    outer loop
      vertex 51.8366 115.94 0
      vertex 75.74 122.4 0
      vertex 51.9782 115.722 0
    endloop
  endfacet
  facet normal 0 0 -1
    outer loop
      vertex 51.6729 116.142 0
      vertex 75.74 122.4 0
      vertex 51.8366 115.94 0
    endloop
  endfacet
  facet normal 0 0 -1
    outer loop
      vertex 51.489 116.326 0
      vertex 75.74 122.4 0
      vertex 51.6729 116.142 0
    endloop
  endfacet
  facet normal 0 0 -1
    outer loop
      vertex 51.2869 116.49 0
      vertex 75.74 122.4 0
      vertex 51.489 116.326 0
    endloop
  endfacet
  facet normal 0 0 -1
    outer loop
      vertex 51.0689 116.632 0
      vertex 75.74 122.4 0
      vertex 51.2869 116.49 0
    endloop
  endfacet
  facet normal 0 0 -1
    outer loop
      vertex 50.8372 116.75 0
      vertex 75.74 122.4 0
      vertex 51.0689 116.632 0
    endloop
  endfacet
  facet normal 0 0 -1
    outer loop
      vertex 50.5944 116.843 0
      vertex 75.74 122.4 0
      vertex 50.8372 116.75 0
    endloop
  endfacet
  facet normal 0 0 -1
    outer loop
      vertex 50.3432 116.91 0
      vertex 75.74 122.4 0
      vertex 50.5944 116.843 0
    endloop
  endfacet
  facet normal 0 0 -1
    outer loop
      vertex 50.0864 116.951 0
      vertex 75.74 122.4 0
      vertex 50.3432 116.91 0
    endloop
  endfacet
  facet normal 0 0 -1
    outer loop
      vertex 49.8267 116.964 0
      vertex 75.74 122.4 0
      vertex 50.0864 116.951 0
    endloop
  endfacet
  facet normal 0 0 -1
    outer loop
      vertex 49.567 116.951 0
      vertex 75.74 122.4 0
      vertex 49.8267 116.964 0
    endloop
  endfacet
  facet normal 0 0 -1
    outer loop
      vertex 26.173 116.951 0
      vertex 49.567 116.951 0
      vertex 49.3101 116.91 0
    endloop
  endfacet
  facet normal 0 0 -1
    outer loop
      vertex 28.3977 114.48 0
      vertex 47.3423 114.48 0
      vertex 28.3977 108.56 0
    endloop
  endfacet
  facet normal 0 0 -1
    outer loop
      vertex 47.3423 114.48 0
      vertex 28.3977 114.48 0
      vertex 47.3559 114.74 0
    endloop
  endfacet
  facet normal 0 0 -1
    outer loop
      vertex 28.3841 114.74 0
      vertex 47.3559 114.74 0
      vertex 28.3977 114.48 0
    endloop
  endfacet
  facet normal 0 0 -1
    outer loop
      vertex 47.3559 114.74 0
      vertex 28.3841 114.74 0
      vertex 47.3966 114.997 0
    endloop
  endfacet
  facet normal 0 0 -1
    outer loop
      vertex 28.3434 114.997 0
      vertex 47.3966 114.997 0
      vertex 28.3841 114.74 0
    endloop
  endfacet
  facet normal 0 0 -1
    outer loop
      vertex 47.3966 114.997 0
      vertex 28.3434 114.997 0
      vertex 47.4639 115.248 0
    endloop
  endfacet
  facet normal 0 0 -1
    outer loop
      vertex 28.2761 115.248 0
      vertex 47.4639 115.248 0
      vertex 28.3434 114.997 0
    endloop
  endfacet
  facet normal 0 0 -1
    outer loop
      vertex 47.4639 115.248 0
      vertex 28.2761 115.248 0
      vertex 47.5571 115.49 0
    endloop
  endfacet
  facet normal 0 0 -1
    outer loop
      vertex 28.1829 115.49 0
      vertex 47.5571 115.49 0
      vertex 28.2761 115.248 0
    endloop
  endfacet
  facet normal 0 0 -1
    outer loop
      vertex 47.5571 115.49 0
      vertex 28.1829 115.49 0
      vertex 47.6751 115.722 0
    endloop
  endfacet
  facet normal 0 0 -1
    outer loop
      vertex 28.0649 115.722 0
      vertex 47.6751 115.722 0
      vertex 28.1829 115.49 0
    endloop
  endfacet
  facet normal 0 0 -1
    outer loop
      vertex 47.6751 115.722 0
      vertex 28.0649 115.722 0
      vertex 47.8168 115.94 0
    endloop
  endfacet
  facet normal 0 0 -1
    outer loop
      vertex 27.9232 115.94 0
      vertex 47.8168 115.94 0
      vertex 28.0649 115.722 0
    endloop
  endfacet
  facet normal 0 0 -1
    outer loop
      vertex 47.8168 115.94 0
      vertex 27.9232 115.94 0
      vertex 47.9804 116.142 0
    endloop
  endfacet
  facet normal 0 0 -1
    outer loop
      vertex 27.7596 116.142 0
      vertex 47.9804 116.142 0
      vertex 27.9232 115.94 0
    endloop
  endfacet
  facet normal 0 0 -1
    outer loop
      vertex 47.9804 116.142 0
      vertex 27.7596 116.142 0
      vertex 48.1643 116.326 0
    endloop
  endfacet
  facet normal 0 0 -1
    outer loop
      vertex 27.5757 116.326 0
      vertex 48.1643 116.326 0
      vertex 27.7596 116.142 0
    endloop
  endfacet
  facet normal 0 0 -1
    outer loop
      vertex 48.1643 116.326 0
      vertex 27.5757 116.326 0
      vertex 48.3664 116.49 0
    endloop
  endfacet
  facet normal 0 0 -1
    outer loop
      vertex 27.3736 116.49 0
      vertex 48.3664 116.49 0
      vertex 27.5757 116.326 0
    endloop
  endfacet
  facet normal 0 0 -1
    outer loop
      vertex 48.3664 116.49 0
      vertex 27.3736 116.49 0
      vertex 48.5845 116.632 0
    endloop
  endfacet
  facet normal 0 0 -1
    outer loop
      vertex 27.1555 116.632 0
      vertex 48.5845 116.632 0
      vertex 27.3736 116.49 0
    endloop
  endfacet
  facet normal 0 0 -1
    outer loop
      vertex 48.5845 116.632 0
      vertex 27.1555 116.632 0
      vertex 48.8162 116.75 0
    endloop
  endfacet
  facet normal 0 0 -1
    outer loop
      vertex 26.9238 116.75 0
      vertex 48.8162 116.75 0
      vertex 27.1555 116.632 0
    endloop
  endfacet
  facet normal 0 0 -1
    outer loop
      vertex 48.8162 116.75 0
      vertex 26.9238 116.75 0
      vertex 49.059 116.843 0
    endloop
  endfacet
  facet normal 0 0 -1
    outer loop
      vertex 26.681 116.843 0
      vertex 49.059 116.843 0
      vertex 26.9238 116.75 0
    endloop
  endfacet
  facet normal 0 0 -1
    outer loop
      vertex 49.059 116.843 0
      vertex 26.681 116.843 0
      vertex 49.3101 116.91 0
    endloop
  endfacet
  facet normal 0 0 -1
    outer loop
      vertex 26.4299 116.91 0
      vertex 49.3101 116.91 0
      vertex 26.681 116.843 0
    endloop
  endfacet
  facet normal 0 0 -1
    outer loop
      vertex 26.173 116.951 0
      vertex 49.3101 116.91 0
      vertex 26.4299 116.91 0
    endloop
  endfacet
  facet normal 0 0 -1
    outer loop
      vertex 49.567 116.951 0
      vertex 26.173 116.951 0
      vertex 75.74 122.4 0
    endloop
  endfacet
  facet normal 0 0 -1
    outer loop
      vertex 0 122.4 0
      vertex 26.173 116.951 0
      vertex 25.9133 116.964 0
    endloop
  endfacet
  facet normal 0 0 -1
    outer loop
      vertex 0 122.4 0
      vertex 25.9133 116.964 0
      vertex 25.6536 116.951 0
    endloop
  endfacet
  facet normal 0 0 -1
    outer loop
      vertex 9.174 108.56 0
      vertex 23.4426 114.74 0
      vertex 23.429 114.48 0
    endloop
  endfacet
  facet normal 0 0 -1
    outer loop
      vertex 9.174 108.56 0
      vertex 23.4832 114.997 0
      vertex 23.4426 114.74 0
    endloop
  endfacet
  facet normal 0 0 -1
    outer loop
      vertex 9.174 108.56 0
      vertex 23.5506 115.248 0
      vertex 23.4832 114.997 0
    endloop
  endfacet
  facet normal 0 0 -1
    outer loop
      vertex 9.174 108.56 0
      vertex 23.6437 115.49 0
      vertex 23.5506 115.248 0
    endloop
  endfacet
  facet normal 0 0 -1
    outer loop
      vertex 0 122.4 0
      vertex 23.6437 115.49 0
      vertex 9.174 108.56 0
    endloop
  endfacet
  facet normal 0 0 -1
    outer loop
      vertex 23.6437 115.49 0
      vertex 0 122.4 0
      vertex 23.7618 115.722 0
    endloop
  endfacet
  facet normal 0 0 -1
    outer loop
      vertex 23.7618 115.722 0
      vertex 0 122.4 0
      vertex 23.9034 115.94 0
    endloop
  endfacet
  facet normal 0 0 -1
    outer loop
      vertex 23.9034 115.94 0
      vertex 0 122.4 0
      vertex 24.0671 116.142 0
    endloop
  endfacet
  facet normal 0 0 -1
    outer loop
      vertex 24.0671 116.142 0
      vertex 0 122.4 0
      vertex 24.251 116.326 0
    endloop
  endfacet
  facet normal 0 0 -1
    outer loop
      vertex 24.251 116.326 0
      vertex 0 122.4 0
      vertex 24.4531 116.49 0
    endloop
  endfacet
  facet normal 0 0 -1
    outer loop
      vertex 26.173 116.951 0
      vertex 0 122.4 0
      vertex 75.74 122.4 0
    endloop
  endfacet
  facet normal 0 0 -1
    outer loop
      vertex 25.3968 116.91 0
      vertex 0 122.4 0
      vertex 25.6536 116.951 0
    endloop
  endfacet
  facet normal 0 0 -1
    outer loop
      vertex 25.1456 116.843 0
      vertex 0 122.4 0
      vertex 25.3968 116.91 0
    endloop
  endfacet
  facet normal 0 0 -1
    outer loop
      vertex 24.9028 116.75 0
      vertex 0 122.4 0
      vertex 25.1456 116.843 0
    endloop
  endfacet
  facet normal 0 0 -1
    outer loop
      vertex 24.6711 116.632 0
      vertex 0 122.4 0
      vertex 24.9028 116.75 0
    endloop
  endfacet
  facet normal 0 0 -1
    outer loop
      vertex 24.4531 116.49 0
      vertex 0 122.4 0
      vertex 24.6711 116.632 0
    endloop
  endfacet
  facet normal 0 0 -1
    outer loop
      vertex 0 122.4 0
      vertex 9.174 108.56 0
      vertex 0 0 0
    endloop
  endfacet
  facet normal -1 0 0
    outer loop
      vertex 0 0 0
      vertex 0 122.4 29
      vertex 0 122.4 0
    endloop
  endfacet
  facet normal -1 -0 0
    outer loop
      vertex 0 122.4 29
      vertex 0 0 0
      vertex 0 0 29
    endloop
  endfacet
  facet normal 0 1 -0
    outer loop
      vertex 75.74 122.4 0
      vertex 0 122.4 29
      vertex 75.74 122.4 29
    endloop
  endfacet
  facet normal 0 1 0
    outer loop
      vertex 0 122.4 29
      vertex 75.74 122.4 0
      vertex 0 122.4 0
    endloop
  endfacet
  facet normal 0 -1 0
    outer loop
      vertex 0 0 29
      vertex 37.87 0 18.75
      vertex 75.74 0 29
    endloop
  endfacet
  facet normal 0 -1 0
    outer loop
      vertex 0 0 0
      vertex 37.87 0 18.75
      vertex 0 0 29
    endloop
  endfacet
  facet normal 0 -1 0
    outer loop
      vertex 75.74 0 0
      vertex 37.87 0 6.25
      vertex 0 0 0
    endloop
  endfacet
  facet normal 0 -1 -0
    outer loop
      vertex 37.87 0 18.75
      vertex 0 0 0
      vertex 37.87 0 6.25
    endloop
  endfacet
  facet normal 0 -1 0
    outer loop
      vertex 73.74 0 18.75
      vertex 75.74 0 29
      vertex 37.87 0 18.75
    endloop
  endfacet
  facet normal 0 -1 0
    outer loop
      vertex 75.74 0 0
      vertex 73.74 0 18.75
      vertex 73.74 0 6.25
    endloop
  endfacet
  facet normal 0 -1 0
    outer loop
      vertex 73.74 0 18.75
      vertex 75.74 0 0
      vertex 75.74 0 29
    endloop
  endfacet
  facet normal 0 -1 0
    outer loop
      vertex 37.87 0 6.25
      vertex 75.74 0 0
      vertex 73.74 0 6.25
    endloop
  endfacet
  facet normal -1 0 0
    outer loop
      vertex 73.74 0 6.25
      vertex 73.74 2 18.75
      vertex 73.74 2 6.25
    endloop
  endfacet
  facet normal -1 -0 0
    outer loop
      vertex 73.74 2 18.75
      vertex 73.74 0 6.25
      vertex 73.74 0 18.75
    endloop
  endfacet
  facet normal -1 0 0
    outer loop
      vertex 73.74 120.4 2
      vertex 73.74 98.8 23
      vertex 73.74 120.4 29
    endloop
  endfacet
  facet normal -1 0 0
    outer loop
      vertex 73.74 120.4 2
      vertex 73.74 90.8 23
      vertex 73.74 98.8 23
    endloop
  endfacet
  facet normal -1 0 0
    outer loop
      vertex 73.74 90.8 23
      vertex 73.74 39.6 23
      vertex 73.74 90.8 27
    endloop
  endfacet
  facet normal -1 0 0
    outer loop
      vertex 73.74 120.4 2
      vertex 73.74 39.6 23
      vertex 73.74 90.8 23
    endloop
  endfacet
  facet normal -1 0 0
    outer loop
      vertex 73.74 2 2
      vertex 73.74 39.6 23
      vertex 73.74 120.4 2
    endloop
  endfacet
  facet normal -1 0 0
    outer loop
      vertex 73.74 2 6.25
      vertex 73.74 31.6 23
      vertex 73.74 2 2
    endloop
  endfacet
  facet normal -1 -0 0
    outer loop
      vertex 73.74 39.6 23
      vertex 73.74 2 2
      vertex 73.74 31.6 23
    endloop
  endfacet
  facet normal -1 0 0
    outer loop
      vertex 73.74 98.8 27
      vertex 73.74 120.4 29
      vertex 73.74 98.8 23
    endloop
  endfacet
  facet normal -1 0 0
    outer loop
      vertex 73.74 90.8 27
      vertex 73.74 120.4 29
      vertex 73.74 98.8 27
    endloop
  endfacet
  facet normal -1 0 0
    outer loop
      vertex 73.74 39.6 27
      vertex 73.74 90.8 27
      vertex 73.74 39.6 23
    endloop
  endfacet
  facet normal -1 0 0
    outer loop
      vertex 73.74 39.6 27
      vertex 73.74 120.4 29
      vertex 73.74 90.8 27
    endloop
  endfacet
  facet normal -1 0 0
    outer loop
      vertex 73.74 2 29
      vertex 73.74 39.6 27
      vertex 73.74 31.6 27
    endloop
  endfacet
  facet normal -1 0 0
    outer loop
      vertex 73.74 2 18.75
      vertex 73.74 31.6 23
      vertex 73.74 2 6.25
    endloop
  endfacet
  facet normal -1 0 0
    outer loop
      vertex 73.74 2 29
      vertex 73.74 31.6 23
      vertex 73.74 2 18.75
    endloop
  endfacet
  facet normal -1 0 0
    outer loop
      vertex 73.74 39.6 27
      vertex 73.74 2 29
      vertex 73.74 120.4 29
    endloop
  endfacet
  facet normal -1 0 0
    outer loop
      vertex 73.74 31.6 23
      vertex 73.74 2 29
      vertex 73.74 31.6 27
    endloop
  endfacet
  facet normal 0 0 1
    outer loop
      vertex 73.74 120.4 2
      vertex 66.566 108.56 2
      vertex 73.74 2 2
    endloop
  endfacet
  facet normal -0 0 1
    outer loop
      vertex 52.1894 115.248 2
      vertex 66.566 108.56 2
      vertex 73.74 120.4 2
    endloop
  endfacet
  facet normal 0 0 1
    outer loop
      vertex 66.566 108.56 2
      vertex 52.2974 114.74 2
      vertex 52.311 114.48 2
    endloop
  endfacet
  facet normal 0 0 1
    outer loop
      vertex 66.566 108.56 2
      vertex 52.2568 114.997 2
      vertex 52.2974 114.74 2
    endloop
  endfacet
  facet normal 0 0 1
    outer loop
      vertex 66.566 108.56 2
      vertex 52.1894 115.248 2
      vertex 52.2568 114.997 2
    endloop
  endfacet
  facet normal 0 0 1
    outer loop
      vertex 73.74 120.4 2
      vertex 52.0963 115.49 2
      vertex 52.1894 115.248 2
    endloop
  endfacet
  facet normal 0 0 1
    outer loop
      vertex 73.74 120.4 2
      vertex 51.9782 115.722 2
      vertex 52.0963 115.49 2
    endloop
  endfacet
  facet normal 0 0 1
    outer loop
      vertex 73.74 120.4 2
      vertex 51.8366 115.94 2
      vertex 51.9782 115.722 2
    endloop
  endfacet
  facet normal 0 0 1
    outer loop
      vertex 73.74 120.4 2
      vertex 51.6729 116.142 2
      vertex 51.8366 115.94 2
    endloop
  endfacet
  facet normal 0 0 1
    outer loop
      vertex 73.74 120.4 2
      vertex 51.489 116.326 2
      vertex 51.6729 116.142 2
    endloop
  endfacet
  facet normal 0 0 1
    outer loop
      vertex 73.74 120.4 2
      vertex 51.2869 116.49 2
      vertex 51.489 116.326 2
    endloop
  endfacet
  facet normal 0 0 1
    outer loop
      vertex 73.74 120.4 2
      vertex 51.0689 116.632 2
      vertex 51.2869 116.49 2
    endloop
  endfacet
  facet normal 0 0 1
    outer loop
      vertex 73.74 120.4 2
      vertex 50.8372 116.75 2
      vertex 51.0689 116.632 2
    endloop
  endfacet
  facet normal 0 0 1
    outer loop
      vertex 73.74 120.4 2
      vertex 50.5944 116.843 2
      vertex 50.8372 116.75 2
    endloop
  endfacet
  facet normal 0 0 1
    outer loop
      vertex 73.74 120.4 2
      vertex 50.3432 116.91 2
      vertex 50.5944 116.843 2
    endloop
  endfacet
  facet normal 0 0 1
    outer loop
      vertex 73.74 120.4 2
      vertex 50.0864 116.951 2
      vertex 50.3432 116.91 2
    endloop
  endfacet
  facet normal 0 0 1
    outer loop
      vertex 73.74 120.4 2
      vertex 49.8267 116.964 2
      vertex 50.0864 116.951 2
    endloop
  endfacet
  facet normal 0 0 1
    outer loop
      vertex 73.74 120.4 2
      vertex 49.567 116.951 2
      vertex 49.8267 116.964 2
    endloop
  endfacet
  facet normal 0 0 1
    outer loop
      vertex 47.3423 114.48 2
      vertex 28.3977 114.48 2
      vertex 47.3423 108.56 2
    endloop
  endfacet
  facet normal 0 0 1
    outer loop
      vertex 47.3559 114.74 2
      vertex 28.3977 114.48 2
      vertex 47.3423 114.48 2
    endloop
  endfacet
  facet normal 0 0 1
    outer loop
      vertex 28.3841 114.74 2
      vertex 47.3559 114.74 2
      vertex 47.3966 114.997 2
    endloop
  endfacet
  facet normal 0 0 1
    outer loop
      vertex 28.3434 114.997 2
      vertex 47.3966 114.997 2
      vertex 47.4639 115.248 2
    endloop
  endfacet
  facet normal 0 0 1
    outer loop
      vertex 28.2761 115.248 2
      vertex 47.4639 115.248 2
      vertex 47.5571 115.49 2
    endloop
  endfacet
  facet normal 0 0 1
    outer loop
      vertex 28.1829 115.49 2
      vertex 47.5571 115.49 2
      vertex 47.6751 115.722 2
    endloop
  endfacet
  facet normal 0 0 1
    outer loop
      vertex 28.0649 115.722 2
      vertex 47.6751 115.722 2
      vertex 47.8168 115.94 2
    endloop
  endfacet
  facet normal 0 0 1
    outer loop
      vertex 27.9232 115.94 2
      vertex 47.8168 115.94 2
      vertex 47.9804 116.142 2
    endloop
  endfacet
  facet normal 0 0 1
    outer loop
      vertex 27.7596 116.142 2
      vertex 47.9804 116.142 2
      vertex 48.1643 116.326 2
    endloop
  endfacet
  facet normal 0 0 1
    outer loop
      vertex 27.5757 116.326 2
      vertex 48.1643 116.326 2
      vertex 48.3664 116.49 2
    endloop
  endfacet
  facet normal 0 0 1
    outer loop
      vertex 27.3736 116.49 2
      vertex 48.3664 116.49 2
      vertex 48.5845 116.632 2
    endloop
  endfacet
  facet normal 0 0 1
    outer loop
      vertex 27.1555 116.632 2
      vertex 48.5845 116.632 2
      vertex 48.8162 116.75 2
    endloop
  endfacet
  facet normal 0 0 1
    outer loop
      vertex 26.9238 116.75 2
      vertex 48.8162 116.75 2
      vertex 49.059 116.843 2
    endloop
  endfacet
  facet normal 0 0 1
    outer loop
      vertex 26.681 116.843 2
      vertex 49.059 116.843 2
      vertex 49.3101 116.91 2
    endloop
  endfacet
  facet normal 0 0 1
    outer loop
      vertex 26.4299 116.91 2
      vertex 49.3101 116.91 2
      vertex 49.567 116.951 2
    endloop
  endfacet
  facet normal 0 0 1
    outer loop
      vertex 26.173 116.951 2
      vertex 49.567 116.951 2
      vertex 73.74 120.4 2
    endloop
  endfacet
  facet normal 0 0 1
    outer loop
      vertex 47.3559 114.74 2
      vertex 28.3841 114.74 2
      vertex 28.3977 114.48 2
    endloop
  endfacet
  facet normal 0 0 1
    outer loop
      vertex 47.3966 114.997 2
      vertex 28.3434 114.997 2
      vertex 28.3841 114.74 2
    endloop
  endfacet
  facet normal 0 0 1
    outer loop
      vertex 47.4639 115.248 2
      vertex 28.2761 115.248 2
      vertex 28.3434 114.997 2
    endloop
  endfacet
  facet normal 0 0 1
    outer loop
      vertex 47.5571 115.49 2
      vertex 28.1829 115.49 2
      vertex 28.2761 115.248 2
    endloop
  endfacet
  facet normal 0 0 1
    outer loop
      vertex 47.6751 115.722 2
      vertex 28.0649 115.722 2
      vertex 28.1829 115.49 2
    endloop
  endfacet
  facet normal 0 0 1
    outer loop
      vertex 47.8168 115.94 2
      vertex 27.9232 115.94 2
      vertex 28.0649 115.722 2
    endloop
  endfacet
  facet normal 0 0 1
    outer loop
      vertex 47.9804 116.142 2
      vertex 27.7596 116.142 2
      vertex 27.9232 115.94 2
    endloop
  endfacet
  facet normal 0 0 1
    outer loop
      vertex 48.1643 116.326 2
      vertex 27.5757 116.326 2
      vertex 27.7596 116.142 2
    endloop
  endfacet
  facet normal 0 0 1
    outer loop
      vertex 48.3664 116.49 2
      vertex 27.3736 116.49 2
      vertex 27.5757 116.326 2
    endloop
  endfacet
  facet normal 0 0 1
    outer loop
      vertex 48.5845 116.632 2
      vertex 27.1555 116.632 2
      vertex 27.3736 116.49 2
    endloop
  endfacet
  facet normal 0 0 1
    outer loop
      vertex 48.8162 116.75 2
      vertex 26.9238 116.75 2
      vertex 27.1555 116.632 2
    endloop
  endfacet
  facet normal 0 0 1
    outer loop
      vertex 49.059 116.843 2
      vertex 26.681 116.843 2
      vertex 26.9238 116.75 2
    endloop
  endfacet
  facet normal 0 0 1
    outer loop
      vertex 49.3101 116.91 2
      vertex 26.4299 116.91 2
      vertex 26.681 116.843 2
    endloop
  endfacet
  facet normal 0 0 1
    outer loop
      vertex 49.567 116.951 2
      vertex 26.173 116.951 2
      vertex 26.4299 116.91 2
    endloop
  endfacet
  facet normal -0 0 1
    outer loop
      vertex 2 120.4 2
      vertex 26.173 116.951 2
      vertex 73.74 120.4 2
    endloop
  endfacet
  facet normal 0 0 1
    outer loop
      vertex 26.173 116.951 2
      vertex 2 120.4 2
      vertex 25.9133 116.964 2
    endloop
  endfacet
  facet normal 0 0 1
    outer loop
      vertex 23.429 114.48 2
      vertex 9.174 108.56 2
      vertex 23.429 108.56 2
    endloop
  endfacet
  facet normal 0 0 1
    outer loop
      vertex 23.4426 114.74 2
      vertex 9.174 108.56 2
      vertex 23.429 114.48 2
    endloop
  endfacet
  facet normal 0 0 1
    outer loop
      vertex 23.4832 114.997 2
      vertex 9.174 108.56 2
      vertex 23.4426 114.74 2
    endloop
  endfacet
  facet normal 0 0 1
    outer loop
      vertex 23.5506 115.248 2
      vertex 9.174 108.56 2
      vertex 23.4832 114.997 2
    endloop
  endfacet
  facet normal 0 0 1
    outer loop
      vertex 2 120.4 2
      vertex 23.5506 115.248 2
      vertex 23.6437 115.49 2
    endloop
  endfacet
  facet normal 0 0 1
    outer loop
      vertex 2 120.4 2
      vertex 23.6437 115.49 2
      vertex 23.7618 115.722 2
    endloop
  endfacet
  facet normal 0 0 1
    outer loop
      vertex 2 120.4 2
      vertex 23.7618 115.722 2
      vertex 23.9034 115.94 2
    endloop
  endfacet
  facet normal 0 0 1
    outer loop
      vertex 2 120.4 2
      vertex 23.9034 115.94 2
      vertex 24.0671 116.142 2
    endloop
  endfacet
  facet normal 0 0 1
    outer loop
      vertex 2 120.4 2
      vertex 24.0671 116.142 2
      vertex 24.251 116.326 2
    endloop
  endfacet
  facet normal 0 0 1
    outer loop
      vertex 2 120.4 2
      vertex 24.251 116.326 2
      vertex 24.4531 116.49 2
    endloop
  endfacet
  facet normal 0 0 1
    outer loop
      vertex 2 120.4 2
      vertex 24.4531 116.49 2
      vertex 24.6711 116.632 2
    endloop
  endfacet
  facet normal 0 0 1
    outer loop
      vertex 9.174 108.56 2
      vertex 2 120.4 2
      vertex 9.174 13.84 2
    endloop
  endfacet
  facet normal 0 0 1
    outer loop
      vertex 23.5506 115.248 2
      vertex 2 120.4 2
      vertex 9.174 108.56 2
    endloop
  endfacet
  facet normal 0 0 1
    outer loop
      vertex 24.9028 116.75 2
      vertex 2 120.4 2
      vertex 24.6711 116.632 2
    endloop
  endfacet
  facet normal 0 0 1
    outer loop
      vertex 25.1456 116.843 2
      vertex 2 120.4 2
      vertex 24.9028 116.75 2
    endloop
  endfacet
  facet normal 0 0 1
    outer loop
      vertex 25.3968 116.91 2
      vertex 2 120.4 2
      vertex 25.1456 116.843 2
    endloop
  endfacet
  facet normal 0 0 1
    outer loop
      vertex 25.6536 116.951 2
      vertex 2 120.4 2
      vertex 25.3968 116.91 2
    endloop
  endfacet
  facet normal 0 0 1
    outer loop
      vertex 25.9133 116.964 2
      vertex 2 120.4 2
      vertex 25.6536 116.951 2
    endloop
  endfacet
  facet normal -0 0 1
    outer loop
      vertex 66.566 13.84 2
      vertex 73.74 2 2
      vertex 66.566 108.56 2
    endloop
  endfacet
  facet normal -0 0 1
    outer loop
      vertex 9.174 13.84 2
      vertex 73.74 2 2
      vertex 66.566 13.84 2
    endloop
  endfacet
  facet normal 0 0 1
    outer loop
      vertex 9.174 13.84 2
      vertex 2 2 2
      vertex 73.74 2 2
    endloop
  endfacet
  facet normal 0 0 1
    outer loop
      vertex 2 2 2
      vertex 9.174 13.84 2
      vertex 2 120.4 2
    endloop
  endfacet
  facet normal 0 0 1
    outer loop
      vertex 66.566 108.56 2
      vertex 52.311 114.48 2
      vertex 52.311 108.56 2
    endloop
  endfacet
  facet normal 0 0 1
    outer loop
      vertex 47.3423 108.56 2
      vertex 28.3977 114.48 2
      vertex 28.3977 108.56 2
    endloop
  endfacet
  facet normal 1 0 0
    outer loop
      vertex 2 98.8 23
      vertex 2 120.4 29
      vertex 2 98.8 27
    endloop
  endfacet
  facet normal 1 0 0
    outer loop
      vertex 2 120.4 29
      vertex 2 90.8 27
      vertex 2 98.8 27
    endloop
  endfacet
  facet normal 1 0 0
    outer loop
      vertex 2 90.8 27
      vertex 2 39.6 27
      vertex 2 90.8 23
    endloop
  endfacet
  facet normal 1 0 0
    outer loop
      vertex 2 120.4 29
      vertex 2 39.6 27
      vertex 2 90.8 27
    endloop
  endfacet
  facet normal 1 -0 0
    outer loop
      vertex 2 2 29
      vertex 2 39.6 27
      vertex 2 120.4 29
    endloop
  endfacet
  facet normal 1 0 0
    outer loop
      vertex 2 31.6 27
      vertex 2 2 29
      vertex 2 31.6 23
    endloop
  endfacet
  facet normal 1 0 0
    outer loop
      vertex 2 39.6 27
      vertex 2 2 29
      vertex 2 31.6 27
    endloop
  endfacet
  facet normal 1 0 0
    outer loop
      vertex 2 120.4 29
      vertex 2 98.8 23
      vertex 2 120.4 2
    endloop
  endfacet
  facet normal 1 -0 0
    outer loop
      vertex 2 90.8 23
      vertex 2 120.4 2
      vertex 2 98.8 23
    endloop
  endfacet
  facet normal 1 0 0
    outer loop
      vertex 2 39.6 23
      vertex 2 90.8 23
      vertex 2 39.6 27
    endloop
  endfacet
  facet normal 1 0 0
    outer loop
      vertex 2 90.8 23
      vertex 2 39.6 23
      vertex 2 120.4 2
    endloop
  endfacet
  facet normal 1 0 0
    outer loop
      vertex 2 2 2
      vertex 2 39.6 23
      vertex 2 31.6 23
    endloop
  endfacet
  facet normal 1 0 0
    outer loop
      vertex 2 2 2
      vertex 2 31.6 23
      vertex 2 2 29
    endloop
  endfacet
  facet normal 1 0 0
    outer loop
      vertex 2 39.6 23
      vertex 2 2 2
      vertex 2 120.4 2
    endloop
  endfacet
  facet normal 0 -1 0
    outer loop
      vertex 2 120.4 2
      vertex 73.74 120.4 29
      vertex 2 120.4 29
    endloop
  endfacet
  facet normal 0 -1 -0
    outer loop
      vertex 73.74 120.4 29
      vertex 2 120.4 2
      vertex 73.74 120.4 2
    endloop
  endfacet
  facet normal 0 1 0
    outer loop
      vertex 73.74 2 6.25
      vertex 73.74 2 2
      vertex 37.87 2 6.25
    endloop
  endfacet
  facet normal 0 1 0
    outer loop
      vertex 37.87 2 18.75
      vertex 73.74 2 29
      vertex 73.74 2 18.75
    endloop
  endfacet
  facet normal 0 1 0
    outer loop
      vertex 73.74 2 29
      vertex 37.87 2 18.75
      vertex 2 2 29
    endloop
  endfacet
  facet normal 0 1 0
    outer loop
      vertex 2 2 2
      vertex 37.87 2 18.75
      vertex 37.87 2 6.25
    endloop
  endfacet
  facet normal 0 1 0
    outer loop
      vertex 37.87 2 18.75
      vertex 2 2 2
      vertex 2 2 29
    endloop
  endfacet
  facet normal 0 1 0
    outer loop
      vertex 2 2 2
      vertex 37.87 2 6.25
      vertex 73.74 2 2
    endloop
  endfacet
  facet normal -1 0 0
    outer loop
      vertex 66.566 13.84 0
      vertex 66.566 108.56 2
      vertex 66.566 108.56 0
    endloop
  endfacet
  facet normal -1 -0 0
    outer loop
      vertex 66.566 108.56 2
      vertex 66.566 13.84 0
      vertex 66.566 13.84 2
    endloop
  endfacet
  facet normal 1 -0 0
    outer loop
      vertex 9.174 13.84 2
      vertex 9.174 108.56 0
      vertex 9.174 108.56 2
    endloop
  endfacet
  facet normal 1 0 0
    outer loop
      vertex 9.174 108.56 0
      vertex 9.174 13.84 2
      vertex 9.174 13.84 0
    endloop
  endfacet
  facet normal 0 -1 0
    outer loop
      vertex 9.174 108.56 0
      vertex 23.429 108.56 2
      vertex 9.174 108.56 2
    endloop
  endfacet
  facet normal 0 -1 -0
    outer loop
      vertex 23.429 108.56 2
      vertex 9.174 108.56 0
      vertex 23.429 108.56 0
    endloop
  endfacet
  facet normal 0 -1 0
    outer loop
      vertex 52.311 108.56 0
      vertex 66.566 108.56 2
      vertex 52.311 108.56 2
    endloop
  endfacet
  facet normal 0 -1 -0
    outer loop
      vertex 66.566 108.56 2
      vertex 52.311 108.56 0
      vertex 66.566 108.56 0
    endloop
  endfacet
  facet normal 0 -1 0
    outer loop
      vertex 28.3977 108.56 0
      vertex 47.3423 108.56 2
      vertex 28.3977 108.56 2
    endloop
  endfacet
  facet normal 0 -1 -0
    outer loop
      vertex 47.3423 108.56 2
      vertex 28.3977 108.56 0
      vertex 47.3423 108.56 0
    endloop
  endfacet
  facet normal 0 1 -0
    outer loop
      vertex 66.566 13.84 0
      vertex 9.174 13.84 2
      vertex 66.566 13.84 2
    endloop
  endfacet
  facet normal 0 1 0
    outer loop
      vertex 9.174 13.84 2
      vertex 66.566 13.84 0
      vertex 9.174 13.84 0
    endloop
  endfacet
  facet normal -0.777102 -0.629375 0
    outer loop
      vertex 27.9232 115.94 0
      vertex 27.7596 116.142 2
      vertex 27.7596 116.142 0
    endloop
  endfacet
  facet normal -0.777102 -0.629375 0
    outer loop
      vertex 27.7596 116.142 2
      vertex 27.9232 115.94 0
      vertex 27.9232 115.94 2
    endloop
  endfacet
  facet normal -0.998635 -0.0522363 0
    outer loop
      vertex 28.3977 114.48 0
      vertex 28.3841 114.74 2
      vertex 28.3841 114.74 0
    endloop
  endfacet
  facet normal -0.998635 -0.0522363 0
    outer loop
      vertex 28.3841 114.74 2
      vertex 28.3977 114.48 0
      vertex 28.3977 114.48 2
    endloop
  endfacet
  facet normal -0.630115 -0.776502 0
    outer loop
      vertex 27.3736 116.49 0
      vertex 27.5757 116.326 2
      vertex 27.3736 116.49 2
    endloop
  endfacet
  facet normal -0.630115 -0.776502 -0
    outer loop
      vertex 27.5757 116.326 2
      vertex 27.3736 116.49 0
      vertex 27.5757 116.326 0
    endloop
  endfacet
  facet normal 0.157661 -0.987493 0
    outer loop
      vertex 25.3968 116.91 0
      vertex 25.6536 116.951 2
      vertex 25.3968 116.91 2
    endloop
  endfacet
  facet normal 0.157661 -0.987493 0
    outer loop
      vertex 25.6536 116.951 2
      vertex 25.3968 116.91 0
      vertex 25.6536 116.951 0
    endloop
  endfacet
  facet normal -0.965883 -0.25898 0
    outer loop
      vertex 28.3434 114.997 0
      vertex 28.2761 115.248 2
      vertex 28.2761 115.248 0
    endloop
  endfacet
  facet normal -0.965883 -0.25898 0
    outer loop
      vertex 28.2761 115.248 2
      vertex 28.3434 114.997 0
      vertex 28.3434 114.997 2
    endloop
  endfacet
  facet normal -0.987691 -0.156416 0
    outer loop
      vertex 28.3841 114.74 0
      vertex 28.3434 114.997 2
      vertex 28.3434 114.997 0
    endloop
  endfacet
  facet normal -0.987691 -0.156416 0
    outer loop
      vertex 28.3434 114.997 2
      vertex 28.3841 114.74 0
      vertex 28.3841 114.74 2
    endloop
  endfacet
  facet normal -0.838444 -0.544988 0
    outer loop
      vertex 28.0649 115.722 0
      vertex 27.9232 115.94 2
      vertex 27.9232 115.94 0
    endloop
  endfacet
  facet normal -0.838444 -0.544988 0
    outer loop
      vertex 27.9232 115.94 2
      vertex 28.0649 115.722 0
      vertex 28.0649 115.722 2
    endloop
  endfacet
  facet normal 0.545799 -0.837916 0
    outer loop
      vertex 24.4531 116.49 0
      vertex 24.6711 116.632 2
      vertex 24.4531 116.49 2
    endloop
  endfacet
  facet normal 0.545799 -0.837916 0
    outer loop
      vertex 24.6711 116.632 2
      vertex 24.4531 116.49 0
      vertex 24.6711 116.632 0
    endloop
  endfacet
  facet normal -0.707299 -0.706915 0
    outer loop
      vertex 27.5757 116.326 0
      vertex 27.7596 116.142 2
      vertex 27.5757 116.326 2
    endloop
  endfacet
  facet normal -0.707299 -0.706915 -0
    outer loop
      vertex 27.7596 116.142 2
      vertex 27.5757 116.326 0
      vertex 27.7596 116.142 0
    endloop
  endfacet
  facet normal 0.453816 -0.891095 0
    outer loop
      vertex 24.6711 116.632 0
      vertex 24.9028 116.75 2
      vertex 24.6711 116.632 2
    endloop
  endfacet
  facet normal 0.453816 -0.891095 0
    outer loop
      vertex 24.9028 116.75 2
      vertex 24.6711 116.632 0
      vertex 24.9028 116.75 0
    endloop
  endfacet
  facet normal 0.35769 -0.93384 0
    outer loop
      vertex 24.9028 116.75 0
      vertex 25.1456 116.843 2
      vertex 24.9028 116.75 2
    endloop
  endfacet
  facet normal 0.35769 -0.93384 0
    outer loop
      vertex 25.1456 116.843 2
      vertex 24.9028 116.75 0
      vertex 25.1456 116.843 0
    endloop
  endfacet
  facet normal 0.891177 -0.453655 0
    outer loop
      vertex 23.6437 115.49 2
      vertex 23.7618 115.722 0
      vertex 23.7618 115.722 2
    endloop
  endfacet
  facet normal 0.891177 -0.453655 0
    outer loop
      vertex 23.7618 115.722 0
      vertex 23.6437 115.49 2
      vertex 23.6437 115.49 0
    endloop
  endfacet
  facet normal -0.545623 -0.838031 0
    outer loop
      vertex 27.1555 116.632 0
      vertex 27.3736 116.49 2
      vertex 27.1555 116.632 2
    endloop
  endfacet
  facet normal -0.545623 -0.838031 -0
    outer loop
      vertex 27.3736 116.49 2
      vertex 27.1555 116.632 0
      vertex 27.3736 116.49 0
    endloop
  endfacet
  facet normal -0.453816 -0.891095 0
    outer loop
      vertex 26.9238 116.75 0
      vertex 27.1555 116.632 2
      vertex 26.9238 116.75 2
    endloop
  endfacet
  facet normal -0.453816 -0.891095 -0
    outer loop
      vertex 27.1555 116.632 2
      vertex 26.9238 116.75 0
      vertex 27.1555 116.632 0
    endloop
  endfacet
  facet normal -0.933186 -0.359392 0
    outer loop
      vertex 28.2761 115.248 0
      vertex 28.1829 115.49 2
      vertex 28.1829 115.49 0
    endloop
  endfacet
  facet normal -0.933186 -0.359392 0
    outer loop
      vertex 28.1829 115.49 2
      vertex 28.2761 115.248 0
      vertex 28.2761 115.248 2
    endloop
  endfacet
  facet normal 0.998635 -0.0522363 0
    outer loop
      vertex 23.429 114.48 2
      vertex 23.4426 114.74 0
      vertex 23.4426 114.74 2
    endloop
  endfacet
  facet normal 0.998635 -0.0522363 0
    outer loop
      vertex 23.4426 114.74 0
      vertex 23.429 114.48 2
      vertex 23.429 114.48 0
    endloop
  endfacet
  facet normal -0.0499952 -0.998749 0
    outer loop
      vertex 25.9133 116.964 0
      vertex 26.173 116.951 2
      vertex 25.9133 116.964 2
    endloop
  endfacet
  facet normal -0.0499952 -0.998749 -0
    outer loop
      vertex 26.173 116.951 2
      vertex 25.9133 116.964 0
      vertex 26.173 116.951 0
    endloop
  endfacet
  facet normal 0.98775 -0.156042 0
    outer loop
      vertex 23.4426 114.74 2
      vertex 23.4832 114.997 0
      vertex 23.4832 114.997 2
    endloop
  endfacet
  facet normal 0.98775 -0.156042 0
    outer loop
      vertex 23.4832 114.997 0
      vertex 23.4426 114.74 2
      vertex 23.4426 114.74 0
    endloop
  endfacet
  facet normal 0.0499952 -0.998749 0
    outer loop
      vertex 25.6536 116.951 0
      vertex 25.9133 116.964 2
      vertex 25.6536 116.951 2
    endloop
  endfacet
  facet normal 0.0499952 -0.998749 0
    outer loop
      vertex 25.9133 116.964 2
      vertex 25.6536 116.951 0
      vertex 25.9133 116.964 0
    endloop
  endfacet
  facet normal 0.257711 -0.966222 0
    outer loop
      vertex 25.1456 116.843 0
      vertex 25.3968 116.91 2
      vertex 25.1456 116.843 2
    endloop
  endfacet
  facet normal 0.257711 -0.966222 0
    outer loop
      vertex 25.3968 116.91 2
      vertex 25.1456 116.843 0
      vertex 25.3968 116.91 0
    endloop
  endfacet
  facet normal 0.933316 -0.359057 0
    outer loop
      vertex 23.5506 115.248 2
      vertex 23.6437 115.49 0
      vertex 23.6437 115.49 2
    endloop
  endfacet
  facet normal 0.933316 -0.359057 0
    outer loop
      vertex 23.6437 115.49 0
      vertex 23.5506 115.248 2
      vertex 23.5506 115.248 0
    endloop
  endfacet
  facet normal -0.891333 -0.45335 0
    outer loop
      vertex 28.1829 115.49 0
      vertex 28.0649 115.722 2
      vertex 28.0649 115.722 0
    endloop
  endfacet
  facet normal -0.891333 -0.45335 0
    outer loop
      vertex 28.0649 115.722 2
      vertex 28.1829 115.49 0
      vertex 28.1829 115.49 2
    endloop
  endfacet
  facet normal 0.707299 -0.706915 0
    outer loop
      vertex 24.0671 116.142 0
      vertex 24.251 116.326 2
      vertex 24.0671 116.142 2
    endloop
  endfacet
  facet normal 0.707299 -0.706915 0
    outer loop
      vertex 24.251 116.326 2
      vertex 24.0671 116.142 0
      vertex 24.251 116.326 0
    endloop
  endfacet
  facet normal -0.35769 -0.93384 0
    outer loop
      vertex 26.681 116.843 0
      vertex 26.9238 116.75 2
      vertex 26.681 116.843 2
    endloop
  endfacet
  facet normal -0.35769 -0.93384 -0
    outer loop
      vertex 26.9238 116.75 2
      vertex 26.681 116.843 0
      vertex 26.9238 116.75 0
    endloop
  endfacet
  facet normal 0.630115 -0.776502 0
    outer loop
      vertex 24.251 116.326 0
      vertex 24.4531 116.49 2
      vertex 24.251 116.326 2
    endloop
  endfacet
  facet normal 0.630115 -0.776502 0
    outer loop
      vertex 24.4531 116.49 2
      vertex 24.251 116.326 0
      vertex 24.4531 116.49 0
    endloop
  endfacet
  facet normal 0.838619 -0.544718 0
    outer loop
      vertex 23.7618 115.722 2
      vertex 23.9034 115.94 0
      vertex 23.9034 115.94 2
    endloop
  endfacet
  facet normal 0.838619 -0.544718 0
    outer loop
      vertex 23.9034 115.94 0
      vertex 23.7618 115.722 2
      vertex 23.7618 115.722 0
    endloop
  endfacet
  facet normal 0.965786 -0.259339 0
    outer loop
      vertex 23.4832 114.997 2
      vertex 23.5506 115.248 0
      vertex 23.5506 115.248 2
    endloop
  endfacet
  facet normal 0.965786 -0.259339 0
    outer loop
      vertex 23.5506 115.248 0
      vertex 23.4832 114.997 2
      vertex 23.4832 114.997 0
    endloop
  endfacet
  facet normal -0.157601 -0.987503 0
    outer loop
      vertex 26.173 116.951 0
      vertex 26.4299 116.91 2
      vertex 26.173 116.951 2
    endloop
  endfacet
  facet normal -0.157601 -0.987503 -0
    outer loop
      vertex 26.4299 116.91 2
      vertex 26.173 116.951 0
      vertex 26.4299 116.91 0
    endloop
  endfacet
  facet normal -0.257806 -0.966197 0
    outer loop
      vertex 26.4299 116.91 0
      vertex 26.681 116.843 2
      vertex 26.4299 116.91 2
    endloop
  endfacet
  facet normal -0.257806 -0.966197 -0
    outer loop
      vertex 26.681 116.843 2
      vertex 26.4299 116.91 0
      vertex 26.681 116.843 0
    endloop
  endfacet
  facet normal 0.776913 -0.629608 0
    outer loop
      vertex 23.9034 115.94 2
      vertex 24.0671 116.142 0
      vertex 24.0671 116.142 2
    endloop
  endfacet
  facet normal 0.776913 -0.629608 0
    outer loop
      vertex 24.0671 116.142 0
      vertex 23.9034 115.94 2
      vertex 23.9034 115.94 0
    endloop
  endfacet
  facet normal -1 0 0
    outer loop
      vertex 28.3977 108.56 0
      vertex 28.3977 114.48 2
      vertex 28.3977 114.48 0
    endloop
  endfacet
  facet normal -1 -0 0
    outer loop
      vertex 28.3977 114.48 2
      vertex 28.3977 108.56 0
      vertex 28.3977 108.56 2
    endloop
  endfacet
  facet normal 1 -0 0
    outer loop
      vertex 23.429 108.56 2
      vertex 23.429 114.48 0
      vertex 23.429 114.48 2
    endloop
  endfacet
  facet normal 1 0 0
    outer loop
      vertex 23.429 114.48 0
      vertex 23.429 108.56 2
      vertex 23.429 108.56 0
    endloop
  endfacet
  facet normal -0.98775 -0.156042 0
    outer loop
      vertex 52.2974 114.74 0
      vertex 52.2568 114.997 2
      vertex 52.2568 114.997 0
    endloop
  endfacet
  facet normal -0.98775 -0.156042 0
    outer loop
      vertex 52.2568 114.997 2
      vertex 52.2974 114.74 0
      vertex 52.2974 114.74 2
    endloop
  endfacet
  facet normal -0.998635 -0.0522363 0
    outer loop
      vertex 52.311 114.48 0
      vertex 52.2974 114.74 2
      vertex 52.2974 114.74 0
    endloop
  endfacet
  facet normal -0.998635 -0.0522363 0
    outer loop
      vertex 52.2974 114.74 2
      vertex 52.311 114.48 0
      vertex 52.311 114.48 2
    endloop
  endfacet
  facet normal -0.965786 -0.259339 0
    outer loop
      vertex 52.2568 114.997 0
      vertex 52.1894 115.248 2
      vertex 52.1894 115.248 0
    endloop
  endfacet
  facet normal -0.965786 -0.259339 0
    outer loop
      vertex 52.1894 115.248 2
      vertex 52.2568 114.997 0
      vertex 52.2568 114.997 2
    endloop
  endfacet
  facet normal 0.838444 -0.544988 0
    outer loop
      vertex 47.6751 115.722 2
      vertex 47.8168 115.94 0
      vertex 47.8168 115.94 2
    endloop
  endfacet
  facet normal 0.838444 -0.544988 0
    outer loop
      vertex 47.8168 115.94 0
      vertex 47.6751 115.722 2
      vertex 47.6751 115.722 0
    endloop
  endfacet
  facet normal 0.157601 -0.987503 0
    outer loop
      vertex 49.3101 116.91 0
      vertex 49.567 116.951 2
      vertex 49.3101 116.91 2
    endloop
  endfacet
  facet normal 0.157601 -0.987503 0
    outer loop
      vertex 49.567 116.951 2
      vertex 49.3101 116.91 0
      vertex 49.567 116.951 0
    endloop
  endfacet
  facet normal -0.0499952 -0.998749 0
    outer loop
      vertex 49.8267 116.964 0
      vertex 50.0864 116.951 2
      vertex 49.8267 116.964 2
    endloop
  endfacet
  facet normal -0.0499952 -0.998749 -0
    outer loop
      vertex 50.0864 116.951 2
      vertex 49.8267 116.964 0
      vertex 50.0864 116.951 0
    endloop
  endfacet
  facet normal -0.707299 -0.706915 0
    outer loop
      vertex 51.489 116.326 0
      vertex 51.6729 116.142 2
      vertex 51.489 116.326 2
    endloop
  endfacet
  facet normal -0.707299 -0.706915 -0
    outer loop
      vertex 51.6729 116.142 2
      vertex 51.489 116.326 0
      vertex 51.6729 116.142 0
    endloop
  endfacet
  facet normal -0.257711 -0.966222 0
    outer loop
      vertex 50.3432 116.91 0
      vertex 50.5944 116.843 2
      vertex 50.3432 116.91 2
    endloop
  endfacet
  facet normal -0.257711 -0.966222 -0
    outer loop
      vertex 50.5944 116.843 2
      vertex 50.3432 116.91 0
      vertex 50.5944 116.843 0
    endloop
  endfacet
  facet normal 0.453816 -0.891095 0
    outer loop
      vertex 48.5845 116.632 0
      vertex 48.8162 116.75 2
      vertex 48.5845 116.632 2
    endloop
  endfacet
  facet normal 0.453816 -0.891095 0
    outer loop
      vertex 48.8162 116.75 2
      vertex 48.5845 116.632 0
      vertex 48.8162 116.75 0
    endloop
  endfacet
  facet normal -0.933316 -0.359057 0
    outer loop
      vertex 52.1894 115.248 0
      vertex 52.0963 115.49 2
      vertex 52.0963 115.49 0
    endloop
  endfacet
  facet normal -0.933316 -0.359057 0
    outer loop
      vertex 52.0963 115.49 2
      vertex 52.1894 115.248 0
      vertex 52.1894 115.248 2
    endloop
  endfacet
  facet normal 0.998635 -0.0522363 0
    outer loop
      vertex 47.3423 114.48 2
      vertex 47.3559 114.74 0
      vertex 47.3559 114.74 2
    endloop
  endfacet
  facet normal 0.998635 -0.0522363 0
    outer loop
      vertex 47.3559 114.74 0
      vertex 47.3423 114.48 2
      vertex 47.3423 114.48 0
    endloop
  endfacet
  facet normal -0.545799 -0.837916 0
    outer loop
      vertex 51.0689 116.632 0
      vertex 51.2869 116.49 2
      vertex 51.0689 116.632 2
    endloop
  endfacet
  facet normal -0.545799 -0.837916 -0
    outer loop
      vertex 51.2869 116.49 2
      vertex 51.0689 116.632 0
      vertex 51.2869 116.49 0
    endloop
  endfacet
  facet normal -0.891177 -0.453655 0
    outer loop
      vertex 52.0963 115.49 0
      vertex 51.9782 115.722 2
      vertex 51.9782 115.722 0
    endloop
  endfacet
  facet normal -0.891177 -0.453655 0
    outer loop
      vertex 51.9782 115.722 2
      vertex 52.0963 115.49 0
      vertex 52.0963 115.49 2
    endloop
  endfacet
  facet normal 0.777102 -0.629375 0
    outer loop
      vertex 47.8168 115.94 2
      vertex 47.9804 116.142 0
      vertex 47.9804 116.142 2
    endloop
  endfacet
  facet normal 0.777102 -0.629375 0
    outer loop
      vertex 47.9804 116.142 0
      vertex 47.8168 115.94 2
      vertex 47.8168 115.94 0
    endloop
  endfacet
  facet normal 0.35769 -0.93384 0
    outer loop
      vertex 48.8162 116.75 0
      vertex 49.059 116.843 2
      vertex 48.8162 116.75 2
    endloop
  endfacet
  facet normal 0.35769 -0.93384 0
    outer loop
      vertex 49.059 116.843 2
      vertex 48.8162 116.75 0
      vertex 49.059 116.843 0
    endloop
  endfacet
  facet normal -0.453816 -0.891095 0
    outer loop
      vertex 50.8372 116.75 0
      vertex 51.0689 116.632 2
      vertex 50.8372 116.75 2
    endloop
  endfacet
  facet normal -0.453816 -0.891095 -0
    outer loop
      vertex 51.0689 116.632 2
      vertex 50.8372 116.75 0
      vertex 51.0689 116.632 0
    endloop
  endfacet
  facet normal -0.776913 -0.629608 0
    outer loop
      vertex 51.8366 115.94 0
      vertex 51.6729 116.142 2
      vertex 51.6729 116.142 0
    endloop
  endfacet
  facet normal -0.776913 -0.629608 0
    outer loop
      vertex 51.6729 116.142 2
      vertex 51.8366 115.94 0
      vertex 51.8366 115.94 2
    endloop
  endfacet
  facet normal -0.630115 -0.776502 0
    outer loop
      vertex 51.2869 116.49 0
      vertex 51.489 116.326 2
      vertex 51.2869 116.49 2
    endloop
  endfacet
  facet normal -0.630115 -0.776502 -0
    outer loop
      vertex 51.489 116.326 2
      vertex 51.2869 116.49 0
      vertex 51.489 116.326 0
    endloop
  endfacet
  facet normal 0.630115 -0.776502 0
    outer loop
      vertex 48.1643 116.326 0
      vertex 48.3664 116.49 2
      vertex 48.1643 116.326 2
    endloop
  endfacet
  facet normal 0.630115 -0.776502 0
    outer loop
      vertex 48.3664 116.49 2
      vertex 48.1643 116.326 0
      vertex 48.3664 116.49 0
    endloop
  endfacet
  facet normal 0.707299 -0.706915 0
    outer loop
      vertex 47.9804 116.142 0
      vertex 48.1643 116.326 2
      vertex 47.9804 116.142 2
    endloop
  endfacet
  facet normal 0.707299 -0.706915 0
    outer loop
      vertex 48.1643 116.326 2
      vertex 47.9804 116.142 0
      vertex 48.1643 116.326 0
    endloop
  endfacet
  facet normal -0.838619 -0.544718 0
    outer loop
      vertex 51.9782 115.722 0
      vertex 51.8366 115.94 2
      vertex 51.8366 115.94 0
    endloop
  endfacet
  facet normal -0.838619 -0.544718 0
    outer loop
      vertex 51.8366 115.94 2
      vertex 51.9782 115.722 0
      vertex 51.9782 115.722 2
    endloop
  endfacet
  facet normal 0.545623 -0.838031 0
    outer loop
      vertex 48.3664 116.49 0
      vertex 48.5845 116.632 2
      vertex 48.3664 116.49 2
    endloop
  endfacet
  facet normal 0.545623 -0.838031 0
    outer loop
      vertex 48.5845 116.632 2
      vertex 48.3664 116.49 0
      vertex 48.5845 116.632 0
    endloop
  endfacet
  facet normal 0.965883 -0.25898 0
    outer loop
      vertex 47.3966 114.997 2
      vertex 47.4639 115.248 0
      vertex 47.4639 115.248 2
    endloop
  endfacet
  facet normal 0.965883 -0.25898 0
    outer loop
      vertex 47.4639 115.248 0
      vertex 47.3966 114.997 2
      vertex 47.3966 114.997 0
    endloop
  endfacet
  facet normal -0.157661 -0.987493 0
    outer loop
      vertex 50.0864 116.951 0
      vertex 50.3432 116.91 2
      vertex 50.0864 116.951 2
    endloop
  endfacet
  facet normal -0.157661 -0.987493 -0
    outer loop
      vertex 50.3432 116.91 2
      vertex 50.0864 116.951 0
      vertex 50.3432 116.91 0
    endloop
  endfacet
  facet normal 0.0499952 -0.998749 0
    outer loop
      vertex 49.567 116.951 0
      vertex 49.8267 116.964 2
      vertex 49.567 116.951 2
    endloop
  endfacet
  facet normal 0.0499952 -0.998749 0
    outer loop
      vertex 49.8267 116.964 2
      vertex 49.567 116.951 0
      vertex 49.8267 116.964 0
    endloop
  endfacet
  facet normal 0.257806 -0.966197 0
    outer loop
      vertex 49.059 116.843 0
      vertex 49.3101 116.91 2
      vertex 49.059 116.843 2
    endloop
  endfacet
  facet normal 0.257806 -0.966197 0
    outer loop
      vertex 49.3101 116.91 2
      vertex 49.059 116.843 0
      vertex 49.3101 116.91 0
    endloop
  endfacet
  facet normal -0.35769 -0.93384 0
    outer loop
      vertex 50.5944 116.843 0
      vertex 50.8372 116.75 2
      vertex 50.5944 116.843 2
    endloop
  endfacet
  facet normal -0.35769 -0.93384 -0
    outer loop
      vertex 50.8372 116.75 2
      vertex 50.5944 116.843 0
      vertex 50.8372 116.75 0
    endloop
  endfacet
  facet normal 0.891333 -0.45335 0
    outer loop
      vertex 47.5571 115.49 2
      vertex 47.6751 115.722 0
      vertex 47.6751 115.722 2
    endloop
  endfacet
  facet normal 0.891333 -0.45335 0
    outer loop
      vertex 47.6751 115.722 0
      vertex 47.5571 115.49 2
      vertex 47.5571 115.49 0
    endloop
  endfacet
  facet normal 0.933186 -0.359392 0
    outer loop
      vertex 47.4639 115.248 2
      vertex 47.5571 115.49 0
      vertex 47.5571 115.49 2
    endloop
  endfacet
  facet normal 0.933186 -0.359392 0
    outer loop
      vertex 47.5571 115.49 0
      vertex 47.4639 115.248 2
      vertex 47.4639 115.248 0
    endloop
  endfacet
  facet normal 0.987691 -0.156416 0
    outer loop
      vertex 47.3559 114.74 2
      vertex 47.3966 114.997 0
      vertex 47.3966 114.997 2
    endloop
  endfacet
  facet normal 0.987691 -0.156416 0
    outer loop
      vertex 47.3966 114.997 0
      vertex 47.3559 114.74 2
      vertex 47.3559 114.74 0
    endloop
  endfacet
  facet normal -1 0 0
    outer loop
      vertex 52.311 108.56 0
      vertex 52.311 114.48 2
      vertex 52.311 114.48 0
    endloop
  endfacet
  facet normal -1 -0 0
    outer loop
      vertex 52.311 114.48 2
      vertex 52.311 108.56 0
      vertex 52.311 108.56 2
    endloop
  endfacet
  facet normal 1 -0 0
    outer loop
      vertex 47.3423 108.56 2
      vertex 47.3423 114.48 0
      vertex 47.3423 114.48 2
    endloop
  endfacet
  facet normal 1 0 0
    outer loop
      vertex 47.3423 114.48 0
      vertex 47.3423 108.56 2
      vertex 47.3423 108.56 0
    endloop
  endfacet
  facet normal 0 0 -1
    outer loop
      vertex 37.87 0 18.75
      vertex 73.74 2 18.75
      vertex 73.74 0 18.75
    endloop
  endfacet
  facet normal -0 0 -1
    outer loop
      vertex 73.74 2 18.75
      vertex 37.87 0 18.75
      vertex 37.87 2 18.75
    endloop
  endfacet
  facet normal -0 0 1
    outer loop
      vertex 37.87 2 6.25
      vertex 73.74 0 6.25
      vertex 73.74 2 6.25
    endloop
  endfacet
  facet normal 0 0 1
    outer loop
      vertex 73.74 0 6.25
      vertex 37.87 2 6.25
      vertex 37.87 0 6.25
    endloop
  endfacet
  facet normal 1 -0 0
    outer loop
      vertex 37.87 0 18.75
      vertex 37.87 2 6.25
      vertex 37.87 2 18.75
    endloop
  endfacet
  facet normal 1 0 0
    outer loop
      vertex 37.87 2 6.25
      vertex 37.87 0 18.75
      vertex 37.87 0 6.25
    endloop
  endfacet
  facet normal 1 -0 0
    outer loop
      vertex 4 31.6 27
      vertex 4 39.6 23
      vertex 4 39.6 27
    endloop
  endfacet
  facet normal 1 0 0
    outer loop
      vertex 4 39.6 23
      vertex 4 31.6 27
      vertex 4 31.6 23
    endloop
  endfacet
  facet normal -0 0 1
    outer loop
      vertex 2 39.6 27
      vertex 4 31.6 27
      vertex 4 39.6 27
    endloop
  endfacet
  facet normal 0 0 1
    outer loop
      vertex 4 31.6 27
      vertex 2 39.6 27
      vertex 2 31.6 27
    endloop
  endfacet
  facet normal 0 0 -1
    outer loop
      vertex 2 31.6 23
      vertex 4 39.6 23
      vertex 4 31.6 23
    endloop
  endfacet
  facet normal -0 0 -1
    outer loop
      vertex 4 39.6 23
      vertex 2 31.6 23
      vertex 2 39.6 23
    endloop
  endfacet
  facet normal 0 1 -0
    outer loop
      vertex 4 39.6 23
      vertex 2 39.6 27
      vertex 4 39.6 27
    endloop
  endfacet
  facet normal 0 1 0
    outer loop
      vertex 2 39.6 27
      vertex 4 39.6 23
      vertex 2 39.6 23
    endloop
  endfacet
  facet normal 0 -1 0
    outer loop
      vertex 2 31.6 23
      vertex 4 31.6 27
      vertex 2 31.6 27
    endloop
  endfacet
  facet normal 0 -1 -0
    outer loop
      vertex 4 31.6 27
      vertex 2 31.6 23
      vertex 4 31.6 23
    endloop
  endfacet
  facet normal 1 -0 0
    outer loop
      vertex 4 90.8 27
      vertex 4 98.8 23
      vertex 4 98.8 27
    endloop
  endfacet
  facet normal 1 0 0
    outer loop
      vertex 4 98.8 23
      vertex 4 90.8 27
      vertex 4 90.8 23
    endloop
  endfacet
  facet normal -0 0 1
    outer loop
      vertex 2 98.8 27
      vertex 4 90.8 27
      vertex 4 98.8 27
    endloop
  endfacet
  facet normal 0 0 1
    outer loop
      vertex 4 90.8 27
      vertex 2 98.8 27
      vertex 2 90.8 27
    endloop
  endfacet
  facet normal 0 0 -1
    outer loop
      vertex 2 90.8 23
      vertex 4 98.8 23
      vertex 4 90.8 23
    endloop
  endfacet
  facet normal -0 0 -1
    outer loop
      vertex 4 98.8 23
      vertex 2 90.8 23
      vertex 2 98.8 23
    endloop
  endfacet
  facet normal 0 1 -0
    outer loop
      vertex 4 98.8 23
      vertex 2 98.8 27
      vertex 4 98.8 27
    endloop
  endfacet
  facet normal 0 1 0
    outer loop
      vertex 2 98.8 27
      vertex 4 98.8 23
      vertex 2 98.8 23
    endloop
  endfacet
  facet normal 0 -1 0
    outer loop
      vertex 2 90.8 23
      vertex 4 90.8 27
      vertex 2 90.8 27
    endloop
  endfacet
  facet normal 0 -1 -0
    outer loop
      vertex 4 90.8 27
      vertex 2 90.8 23
      vertex 4 90.8 23
    endloop
  endfacet
  facet normal -0 0 1
    outer loop
      vertex 71.74 39.6 27
      vertex 73.74 31.6 27
      vertex 73.74 39.6 27
    endloop
  endfacet
  facet normal 0 0 1
    outer loop
      vertex 73.74 31.6 27
      vertex 71.74 39.6 27
      vertex 71.74 31.6 27
    endloop
  endfacet
  facet normal 0 0 -1
    outer loop
      vertex 71.74 31.6 23
      vertex 73.74 39.6 23
      vertex 73.74 31.6 23
    endloop
  endfacet
  facet normal -0 0 -1
    outer loop
      vertex 73.74 39.6 23
      vertex 71.74 31.6 23
      vertex 71.74 39.6 23
    endloop
  endfacet
  facet normal -1 0 0
    outer loop
      vertex 71.74 31.6 23
      vertex 71.74 39.6 27
      vertex 71.74 39.6 23
    endloop
  endfacet
  facet normal -1 -0 0
    outer loop
      vertex 71.74 39.6 27
      vertex 71.74 31.6 23
      vertex 71.74 31.6 27
    endloop
  endfacet
  facet normal 0 1 -0
    outer loop
      vertex 73.74 39.6 23
      vertex 71.74 39.6 27
      vertex 73.74 39.6 27
    endloop
  endfacet
  facet normal 0 1 0
    outer loop
      vertex 71.74 39.6 27
      vertex 73.74 39.6 23
      vertex 71.74 39.6 23
    endloop
  endfacet
  facet normal 0 -1 0
    outer loop
      vertex 71.74 31.6 23
      vertex 73.74 31.6 27
      vertex 71.74 31.6 27
    endloop
  endfacet
  facet normal 0 -1 -0
    outer loop
      vertex 73.74 31.6 27
      vertex 71.74 31.6 23
      vertex 73.74 31.6 23
    endloop
  endfacet
  facet normal -0 0 1
    outer loop
      vertex 71.74 98.8 27
      vertex 73.74 90.8 27
      vertex 73.74 98.8 27
    endloop
  endfacet
  facet normal 0 0 1
    outer loop
      vertex 73.74 90.8 27
      vertex 71.74 98.8 27
      vertex 71.74 90.8 27
    endloop
  endfacet
  facet normal 0 0 -1
    outer loop
      vertex 71.74 90.8 23
      vertex 73.74 98.8 23
      vertex 73.74 90.8 23
    endloop
  endfacet
  facet normal -0 0 -1
    outer loop
      vertex 73.74 98.8 23
      vertex 71.74 90.8 23
      vertex 71.74 98.8 23
    endloop
  endfacet
  facet normal -1 0 0
    outer loop
      vertex 71.74 90.8 23
      vertex 71.74 98.8 27
      vertex 71.74 98.8 23
    endloop
  endfacet
  facet normal -1 -0 0
    outer loop
      vertex 71.74 98.8 27
      vertex 71.74 90.8 23
      vertex 71.74 90.8 27
    endloop
  endfacet
  facet normal 0 1 -0
    outer loop
      vertex 73.74 98.8 23
      vertex 71.74 98.8 27
      vertex 73.74 98.8 27
    endloop
  endfacet
  facet normal 0 1 0
    outer loop
      vertex 71.74 98.8 27
      vertex 73.74 98.8 23
      vertex 71.74 98.8 23
    endloop
  endfacet
  facet normal 0 -1 0
    outer loop
      vertex 71.74 90.8 23
      vertex 73.74 90.8 27
      vertex 71.74 90.8 27
    endloop
  endfacet
  facet normal 0 -1 -0
    outer loop
      vertex 73.74 90.8 27
      vertex 71.74 90.8 23
      vertex 73.74 90.8 23
    endloop
  endfacet
endsolid OpenSCAD_Model
